<?xml version="1.0" encoding="utf-8"?>
<!-- Generator: Adobe Illustrator 23.0.1, SVG Export Plug-In . SVG Version: 6.00 Build 0)  -->
<svg version="1.1" id="Layer_1" xmlns="http://www.w3.org/2000/svg" xmlns:xlink="http://www.w3.org/1999/xlink" x="0px" y="0px"
	 viewBox="0 0 690 240" style="enable-background:new 0 0 690 240;" xml:space="preserve">
<style type="text/css">
	.st0{fill:#FFFFFF;}
</style>
<title>tray_logo</title>
<path class="st0" d="M274.5,118.2v-17.1H250V81.5h-19.9v19.7h-20.7v17.1h20.7V144c0,12.2,2.3,19.5,7.4,24.5
	c6.9,6.9,16.1,8.5,23.9,8.5c9.3,0,12.4-1.5,12.4-1.5v-16.8c-3.8,0.6-7.7,0.8-11.6,0.8c-2.4,0-6.5-0.5-9.2-3.2
	c-2.3-2.3-2.9-6.2-2.9-9.5v-28.5H274.5z"/>
<path class="st0" d="M329.8,99.6c-8.4,0-15.8,2.9-20.3,7.5c-0.5,0.5-1,1-1.4,1.6v-7.5h-19.2v74.4h19.9V129c4.1-6.8,11.5-11,19.5-11
	c2.7,0,5.5,0.3,8.2,0.8v-18.5C334.3,99.9,332.1,99.6,329.8,99.6z"/>
<polygon class="st0" points="511.7,101.2 490.7,101.2 470.5,145.5 448.8,101.2 426.9,101.2 460.2,168 460.2,168 460.2,168 
	445.1,200 466,200 "/>
<path class="st0" d="M399.4,101.2v5.9c-6.3-4.8-13.9-7.4-21.8-7.4c-20.1,0-36.6,16.7-36.6,38.8s17,38.7,37.5,38.7
	c12.8,0,20.1-6.7,20.8-7.4v5.9h19.1v-74.4H399.4z M380.6,158.7c-10.7,0-19.6-8.1-19.6-20.2c0-11.6,8.2-20.4,19.1-20.4
	c7.2,0,13.9,3.3,18.4,8.9v22.9C394.3,155.4,387.7,158.7,380.6,158.7z"/>
<path class="st0" d="M510.8,150.9c7.2,0.2,12.9,6.1,12.8,13.4s-6.1,12.9-13.4,12.8c-7.1-0.2-12.8-6-12.8-13.1
	c0-7.2,5.9-13.1,13.1-13.1C510.6,150.9,510.7,150.9,510.8,150.9z"/>
<path class="st0" d="M547.4,63.5c7,0.1,12.6,6,12.5,13c-0.1,7-6,12.6-13,12.5c-6.9-0.1-12.5-5.8-12.5-12.7c0-7.1,5.8-12.8,12.8-12.7
	C547.3,63.4,547.4,63.4,547.4,63.5z"/>
<rect x="537.5" y="101.2" class="st0" width="19.9" height="74.4"/>
<path class="st0" d="M610.3,99.6c-21.9,0-39.6,16.9-39.6,38.7s17.7,38.7,39.6,38.7s39.6-16.9,39.6-38.7S632.2,99.6,610.3,99.6z
	 M610.3,158.7c-10.8,0-19.6-8.2-19.6-20.3c0-11.9,8.8-20.3,19.6-20.3s19.7,8.4,19.7,20.3C630,150.5,621.2,158.7,610.3,158.7z"/>
<path class="st0" d="M139.6,40c-22,0-39.8,17.8-39.8,39.8l0,0v7.5h19.9v-7.5c0-11,8.9-19.9,19.9-19.9c11,0,19.9,8.9,19.9,19.9
	c0,11-8.9,19.9-19.9,19.9H79.9c-22,0-39.8,17.8-39.8,39.8s17.8,39.8,39.8,39.8h7.5v-19.9h-7.5c-11,0-19.9-8.9-19.9-19.9
	s8.9-19.9,19.9-19.9h19.9v59.7h19.9v-59.7h19.9c22,0.3,40.1-17.2,40.5-39.2c0.3-22-17.2-40.1-39.2-40.5C140.5,40,140.1,40,139.6,40z
	"/>
</svg>
